# Blender 3.5.1
# www.blender.org
mtllib cane.mtl
o LichMesh.001_Scene.002
v -0.301075 -0.001068 -1.438189
v -0.375497 -0.001068 -2.047152
v -0.249107 0.093105 -1.350715
v -0.231190 -0.001068 -1.450872
v -0.249107 -0.095241 -1.350715
vn -0.9102 0.3990 0.1112
vn 0.8912 0.3990 -0.2157
vn 0.8912 -0.3990 -0.2157
vn -0.9102 -0.3990 0.1112
vt 0.834488 0.807752
vt 0.812770 0.658329
vt 0.812770 0.834070
vt 0.791053 0.807752
vt 0.762743 0.826800
vt 0.862798 0.826800
s 1
usemtl Default_Material.001
f 1/1/1 3/3/1 2/2/1
f 3/3/2 4/4/2 2/2/2
f 4/4/3 5/5/3 2/2/3
f 5/6/4 1/1/4 2/2/4
o LichMesh.002_Scene.003
v -0.369173 -0.001068 -1.224743
v -0.308917 -0.001068 -1.680280
v -0.251810 0.126482 -1.365613
v -0.092432 -0.001068 -1.274967
v -0.251810 -0.128618 -1.365613
v -0.109957 -0.001068 -0.996170
v -0.209450 0.159881 -1.132200
v -0.254799 -0.001068 -0.969884
v -0.209450 -0.162017 -1.132200
vn -0.7865 0.6088 -0.1040
vn 0.6998 0.6088 -0.3738
vn 0.6998 -0.6088 -0.3738
vn -0.7865 -0.6088 -0.1040
vn 0.7719 0.6309 -0.0786
vn -0.7503 -0.6309 0.1977
vn 0.1300 0.6857 0.7162
vn 0.1300 -0.6857 0.7162
vn -0.7503 0.6309 0.1977
vn 0.7719 -0.6309 -0.0786
vt 0.097027 0.748086
vt 0.353267 0.908155
vt 0.092999 0.851686
vt 0.315407 0.829690
vt 0.135195 0.778826
vt 0.361813 0.803460
vt 0.055471 0.777237
vt 0.401289 0.832540
vt 0.354032 0.748899
vt 0.312527 0.767630
vt 0.141372 0.716479
vt 0.351346 0.717897
vt 0.090699 0.684108
vt 0.048728 0.720110
vt 0.405324 0.761285
s 1
usemtl Default_Material.001
f 6/7/5 8/11/5 7/9/5
f 8/10/6 9/12/6 7/8/6
f 9/12/7 10/14/7 7/8/7
f 10/13/8 6/7/8 7/9/8
f 9/12/9 12/16/9 11/15/9
f 9/12/9 8/10/9 12/16/9
f 6/7/10 14/20/10 13/19/10
f 6/7/10 10/13/10 14/20/10
f 11/15/11 12/16/11 13/18/11
f 13/18/12 14/21/12 11/15/12
f 8/11/13 13/19/13 12/17/13
f 8/11/13 6/7/13 13/19/13
f 10/14/14 11/15/14 14/21/14
f 10/14/14 9/12/14 11/15/14
o LichMesh.003_Scene.004
v 0.128240 0.029162 0.728534
v 0.146632 -0.001068 0.829879
v 0.102481 0.014047 0.733208
v 0.102481 -0.016183 0.733208
v 0.128240 -0.031298 0.728534
v 0.153999 -0.016183 0.723859
v 0.153999 0.014047 0.723859
v -0.315362 -0.037315 -1.364210
v -0.315362 0.035178 -1.364210
v -0.253590 0.071424 -1.375421
v -0.191819 0.035178 -1.386631
v -0.191819 -0.037315 -1.386631
v -0.253590 -0.073561 -1.375421
vn 0.0503 0.9595 0.2771
vn -0.7673 0.4798 0.4255
vn 0.1786 -0.0000 0.9839
vn -0.7673 -0.4798 0.4255
vn 0.0503 -0.9595 0.2771
vn 0.8679 -0.4798 0.1287
vn 0.8679 0.4798 0.1287
vn -0.9807 -0.0000 0.1954
vn -0.4888 0.8659 0.1061
vn 0.4949 0.8659 -0.0724
vn 0.9868 -0.0000 -0.1617
vn 0.4950 -0.8659 -0.0724
vn 0.4949 -0.8659 -0.0724
vn -0.4888 -0.8659 0.1061
vt 0.569696 0.527771
vt 0.611347 0.527769
vt 0.590537 0.549216
vt 0.576566 0.526109
vt 0.583538 0.525129
vt 0.590554 0.524812
vt 0.597563 0.525144
vt 0.604512 0.526127
vt 0.573479 0.026449
vt 0.556466 0.026973
vt 0.539509 0.027839
vt 0.641609 0.027840
vt 0.624611 0.026970
vt 0.607575 0.026447
vt 0.590524 0.026274
s 1
usemtl Default_Material.001
f 15/22/15 17/25/16 16/24/17
f 17/25/16 18/26/18 16/24/17
f 18/26/18 19/27/19 16/24/17
f 19/27/19 20/28/20 16/24/17
f 20/28/20 21/29/21 16/24/17
f 21/29/21 15/23/15 16/24/17
f 18/26/22 23/31/22 22/30/22
f 18/26/22 17/25/22 23/31/22
f 17/25/23 24/32/23 23/31/23
f 17/25/23 15/22/23 24/32/23
f 15/23/24 25/34/24 24/33/24
f 15/23/24 21/29/24 25/34/24
f 21/29/25 26/35/25 25/34/25
f 21/29/25 20/28/25 26/35/25
f 20/28/26 27/36/27 26/35/27
f 20/28/26 19/27/26 27/36/27
f 19/27/28 22/30/28 27/36/28
f 19/27/28 18/26/28 22/30/28
o LichMesh.008_Scene.009
v -0.304863 0.398008 -1.608223
v -0.297551 0.367610 -1.617653
v -0.308841 0.486560 -1.679865
v -0.282678 0.301010 -1.436261
v -0.268054 0.240214 -1.455120
v -0.263563 0.070417 -1.231490
v -0.254283 0.069880 -1.379238
v -0.287392 0.398008 -1.611393
v -0.247736 0.301010 -1.442602
v -0.193678 0.070417 -1.244173
v -0.289648 0.395574 -1.574105
v -0.252248 0.296143 -1.368026
v -0.209750 0.122619 -1.133854
vn -0.9742 -0.2220 -0.0398
vn -0.9689 -0.1805 -0.1693
vn -0.9733 -0.2292 -0.0157
vn -0.9818 -0.1825 -0.0524
vn -0.9845 -0.1592 -0.0739
vn -0.9857 -0.1430 -0.0888
vn 0.9057 -0.2292 -0.3567
vn 0.8476 -0.1805 -0.4990
vn 0.8981 -0.2220 -0.3796
vn 0.8957 -0.1592 -0.4152
vn 0.9008 -0.1825 -0.3941
vn 0.8917 -0.1430 -0.4295
vn 0.9193 0.3851 0.0808
vn 0.9539 0.2903 0.0767
vn 0.8697 0.4864 0.0844
vn 0.9276 0.3690 0.0579
vn 0.9593 0.2794 0.0397
vn 0.9620 0.2704 0.0379
vn 0.9594 0.2794 0.0397
vn -0.7846 0.4864 0.3846
vn -0.8661 0.2903 0.4069
vn -0.8324 0.3850 0.3987
vn -0.8842 0.2794 0.3743
vn -0.8482 0.3690 0.3801
vn -0.8874 0.2704 0.3735
vt 0.548751 0.956359
vt 0.541610 0.957373
vt 0.517972 0.952843
vt 0.493940 0.969636
vt 0.567088 0.977717
vt 0.545742 0.909325
vt 0.530878 0.902889
vt 0.556546 0.829826
vt 0.528591 0.851210
vt 0.511214 0.950247
vt 0.515188 0.906617
vt 0.503622 0.833388
vt 0.506928 0.942021
vt 0.551698 0.946877
vt 0.501933 0.892527
vt 0.559075 0.895047
vt 0.475989 0.831494
vt 0.587673 0.825264
s 1
usemtl Default_Material.001
f 28/37/29 30/41/30 29/38/31
f 31/42/32 28/37/29 29/38/31
f 31/42/32 29/38/31 32/43/33
f 33/44/34 31/42/32 32/43/33
f 33/44/34 32/43/33 34/45/34
f 29/39/35 30/40/36 35/46/37
f 32/43/38 29/39/35 35/46/37
f 32/43/38 35/46/37 36/47/39
f 34/45/40 32/43/38 36/47/39
f 34/45/40 36/47/39 37/48/40
f 35/46/41 30/40/42 38/49/43
f 36/47/44 35/46/41 38/49/43
f 36/47/44 38/49/43 39/51/45
f 37/48/46 36/47/44 39/51/45
f 37/48/46 39/51/47 40/53/46
f 38/50/48 30/41/49 28/37/50
f 39/52/51 38/50/48 28/37/50
f 39/52/51 28/37/50 31/42/52
f 40/54/53 39/52/51 31/42/52
f 40/54/53 31/42/52 33/44/53
o LichMesh.009_Scene.010
v -0.304863 -0.400144 -1.608223
v -0.308842 -0.488696 -1.679865
v -0.297551 -0.369746 -1.617653
v -0.282678 -0.303146 -1.436261
v -0.268054 -0.242351 -1.455120
v -0.263563 -0.072553 -1.231490
v -0.254283 -0.072017 -1.379238
v -0.287392 -0.400144 -1.611393
v -0.247736 -0.303146 -1.442602
v -0.193678 -0.072553 -1.244173
v -0.289648 -0.397711 -1.574105
v -0.252248 -0.298280 -1.368026
v -0.209750 -0.124755 -1.133854
vn -0.9742 0.2220 -0.0398
vn -0.9732 0.2292 -0.0157
vn -0.9689 0.1805 -0.1693
vn -0.9818 0.1825 -0.0524
vn -0.9845 0.1592 -0.0739
vn -0.9857 0.1430 -0.0888
vn 0.9057 0.2292 -0.3567
vn 0.8981 0.2220 -0.3796
vn 0.8476 0.1805 -0.4990
vn 0.8957 0.1592 -0.4152
vn 0.9008 0.1825 -0.3941
vn 0.8917 0.1430 -0.4295
vn 0.9193 -0.3851 0.0808
vn 0.8697 -0.4864 0.0844
vn 0.9539 -0.2903 0.0767
vn 0.9276 -0.3690 0.0579
vn 0.9594 -0.2794 0.0397
vn 0.9620 -0.2704 0.0379
vn -0.7846 -0.4864 0.3846
vn -0.8324 -0.3850 0.3987
vn -0.8661 -0.2903 0.4069
vn -0.8842 -0.2794 0.3743
vn -0.8481 -0.3690 0.3802
vn -0.8874 -0.2704 0.3735
vt 0.068693 0.965383
vt 0.126511 0.979786
vt 0.048515 0.983430
vt 0.075200 0.967284
vt 0.102736 0.964110
vt 0.074906 0.921354
vt 0.089167 0.915663
vt 0.062850 0.845078
vt 0.090415 0.865141
vt 0.109254 0.961461
vt 0.104600 0.919049
vt 0.113766 0.847744
vt 0.113238 0.953368
vt 0.066805 0.955930
vt 0.117136 0.905023
vt 0.062260 0.907733
vt 0.140769 0.844175
vt 0.032489 0.842029
s 1
usemtl Default_Material.001
f 41/55/54 43/58/55 42/57/56
f 44/60/57 43/58/55 41/55/54
f 44/60/57 45/61/58 43/58/55
f 46/62/59 45/61/58 44/60/57
f 46/62/59 47/63/59 45/61/58
f 43/59/60 48/64/61 42/56/62
f 45/61/63 48/64/61 43/59/60
f 45/61/63 49/65/64 48/64/61
f 47/63/65 49/65/64 45/61/63
f 47/63/65 50/66/65 49/65/64
f 48/64/66 51/67/67 42/56/68
f 49/65/69 51/67/67 48/64/66
f 49/65/69 52/69/70 51/67/67
f 50/66/71 52/69/70 49/65/69
f 50/66/71 53/71/71 52/69/70
f 51/68/72 41/55/73 42/57/74
f 52/70/75 41/55/73 51/68/72
f 52/70/75 44/60/76 41/55/73
f 53/72/77 44/60/76 52/70/75
f 53/72/77 46/62/77 44/60/76
