# Blender 3.5.1
# www.blender.org
mtllib ShieldRotate.mtl
o Shield4
v -2.614650 2.514075 -0.876750
v -2.071430 -2.002776 -0.921819
v -2.793500 0.389911 -0.869101
v -2.611280 -0.929556 -0.864349
v -0.026140 2.963411 -1.215702
v -0.026140 0.388696 -1.206431
v -0.026140 -0.930778 -1.201672
v -0.026140 -3.563545 -1.184144
v -1.566030 2.449658 -1.121850
v -1.640820 0.389028 -1.114423
v -1.594820 -0.930446 -1.109678
v -1.227560 -2.866275 -1.069911
v -2.775030 1.440184 -0.872883
v -1.630040 1.490205 -1.118395
v -0.026140 1.604375 -1.210808
v -0.688150 2.635019 -1.214520
v 1.542540 -0.930446 -1.109678
v 2.019160 -2.002776 -0.921819
v 2.559010 -0.929556 -0.864349
v 2.722760 1.440184 -0.872882
v 1.577760 1.490205 -1.118395
v 1.588540 0.389035 -1.114430
v 2.741230 0.389925 -0.869100
v 1.175290 -2.866275 -1.069911
v 1.513760 2.449658 -1.121850
v 2.562380 2.514074 -0.876749
v 0.635870 2.635019 -1.214520
v -1.594820 -0.932242 -1.608454
v -2.173960 -2.004351 -1.359261
v -2.740870 -0.931352 -1.363125
v -2.912830 1.438388 -1.371658
v -1.630040 1.488409 -1.617171
v -1.640820 0.387232 -1.613213
v -2.932220 0.388115 -1.367876
v -0.026140 1.602579 -1.709584
v -0.026140 0.386900 -1.705206
v -0.026140 -0.932567 -1.700455
v -0.026140 -3.565128 -1.625680
v -1.287790 -2.867767 -1.486133
v -1.566030 2.447862 -1.620626
v -2.744410 2.512279 -1.375525
v -0.688150 2.633223 -1.713295
v -0.026140 2.961615 -1.714478
v 2.688590 -0.931352 -1.363125
v 1.542540 -0.932243 -1.608454
v 2.121690 -2.004351 -1.359261
v 2.879950 0.388129 -1.367876
v 2.860550 1.438388 -1.371658
v 1.588540 0.387239 -1.613205
v 1.577760 1.488409 -1.617171
v 1.235510 -2.867767 -1.486133
v 1.513760 2.447862 -1.620626
v 2.692140 2.512278 -1.375525
v 0.635870 2.633223 -1.713295
v -0.888570 1.541183 -1.659894
v 0.835780 1.541225 -1.659922
v -0.026140 2.766662 -1.937202
v -0.026140 1.927142 -1.890628
v -0.433070 2.545841 -1.881202
v 0.380790 2.545841 -1.881202
v -0.697660 2.483449 -1.809630
v -0.026140 1.444193 -1.805888
v -0.806060 1.537619 -1.761860
v -1.418710 2.350825 -1.726633
v -0.026140 0.502485 -1.766031
v 0.753310 1.537661 -1.761889
v 0.645380 2.483449 -1.809630
v 1.366430 2.350825 -1.726633
vn -0.1587 -0.0576 -0.9856
vn -0.2212 -0.1059 -0.9695
vn -0.2029 -0.0674 -0.9769
vn -0.1913 0.0091 -0.9815
vn -0.1259 -0.0079 -0.9920
vn -0.1923 -0.0112 -0.9813
vn -0.0572 -0.0021 -0.9984
vn -0.1247 0.0037 -0.9922
vn -0.0575 -0.0040 -0.9983
vn -0.0756 -0.0269 -0.9968
vn -0.1643 -0.0740 -0.9836
vn -0.1951 0.0191 -0.9806
vn -0.1267 0.0095 -0.9919
vn -0.0000 -0.0554 -0.9985
vn -0.1067 -0.0551 -0.9928
vn 0.1587 -0.0576 -0.9857
vn 0.2029 -0.0674 -0.9769
vn 0.2212 -0.1059 -0.9695
vn 0.1913 0.0091 -0.9815
vn 0.1254 -0.0077 -0.9921
vn 0.1246 0.0037 -0.9922
vn 0.0572 -0.0021 -0.9984
vn 0.0575 -0.0040 -0.9983
vn 0.0756 -0.0269 -0.9968
vn 0.1643 -0.0740 -0.9836
vn 0.0935 -0.0492 -0.9944
vn 0.1953 0.0189 -0.9806
vn 0.1267 0.0095 -0.9919
vn 0.1067 -0.0551 -0.9928
vn 0.1662 0.0354 0.9855
vn 0.2274 0.0441 0.9728
vn 0.2357 0.0651 0.9696
vn 0.2135 -0.0098 0.9769
vn 0.1367 0.0081 0.9906
vn 0.1393 0.0021 0.9902
vn 0.0575 0.0039 0.9983
vn 0.0428 0.0108 0.9990
vn 0.0684 0.0118 0.9976
vn 0.1582 0.0420 0.9865
vn 0.0790 0.0188 0.9967
vn 0.2179 -0.0208 0.9758
vn 0.1452 0.0023 0.9894
vn 0.0357 0.0143 0.9993
vn -0.0000 0.0036 1.0000
vn -0.1662 0.0354 0.9855
vn -0.2353 0.0653 0.9697
vn -0.2274 0.0442 0.9728
vn -0.2135 -0.0099 0.9769
vn -0.1367 0.0081 0.9906
vn -0.2148 0.0117 0.9766
vn -0.1393 0.0022 0.9902
vn -0.0575 0.0039 0.9983
vn -0.0682 0.0118 0.9976
vn -0.1582 0.0419 0.9865
vn -0.2179 -0.0208 0.9758
vn -0.1452 0.0023 0.9894
vn -0.0357 0.0143 0.9993
vn -0.0428 0.0108 0.9990
vn -0.9240 -0.2973 0.2404
vn -0.7879 -0.5897 0.1774
vn -0.9630 -0.0583 0.2632
vn -0.9615 0.0830 0.2619
vn -0.9630 -0.0582 0.2632
vn -0.4894 -0.8713 0.0374
vn -0.5950 -0.7991 0.0865
vn -0.9615 0.0830 0.2620
vn -0.9555 0.1472 0.2557
vn -0.0764 0.9971 -0.0072
vn 0.0554 0.9984 -0.0108
vn -0.3283 0.9446 -0.0034
vn -0.0764 0.9970 -0.0072
vn -0.4444 0.8958 -0.0032
vn -0.3284 0.9445 -0.0034
vn -0.5949 -0.7991 0.0865
vn 0.9240 -0.2973 0.2404
vn 0.7879 -0.5897 0.1774
vn 0.9630 -0.0582 0.2631
vn 0.9615 0.0830 0.2620
vn 0.9630 -0.0582 0.2632
vn 0.4894 -0.8713 0.0374
vn 0.5950 -0.7991 0.0865
vn 0.5949 -0.7991 0.0865
vn 0.0764 0.9971 -0.0072
vn -0.0554 0.9984 -0.0108
vn 0.0765 0.9970 -0.0072
vn 0.9555 0.1472 0.2556
vn 0.3282 0.9446 -0.0034
vn 0.3283 0.9446 -0.0034
vn 0.4444 0.8958 -0.0032
vn -0.0832 -0.0408 -0.9957
vn -0.0726 -0.0417 -0.9965
vn -0.0000 -0.0423 -0.9991
vn -0.0000 -0.0417 -0.9991
vn 0.0726 -0.0417 -0.9965
vn 0.0832 -0.0408 -0.9957
vn -0.5997 -0.3862 -0.7009
vn -0.5997 -0.3863 -0.7008
vn -0.3599 0.6287 -0.6893
vn -0.3599 0.6286 -0.6894
vn 0.3599 0.6287 -0.6893
vn 0.3599 0.6286 -0.6894
vn 0.5997 -0.3862 -0.7009
vn 0.5997 -0.3863 -0.7008
vn 0.6246 0.4000 -0.6707
vn 0.6246 0.3999 -0.6708
vn -0.6918 -0.4962 -0.5245
vn -0.6918 -0.4963 -0.5245
vn -0.1988 0.5526 -0.8094
vn -0.6270 -0.4560 -0.6316
vn 0.6272 -0.4559 -0.6315
vn 0.6272 -0.4559 -0.6314
vn 0.1988 0.5526 -0.8094
vn 0.1988 0.5525 -0.8094
vn 0.6918 -0.4966 -0.5242
vn 0.6918 -0.4967 -0.5241
vn -0.6247 0.4001 -0.6706
vn -0.6246 0.4000 -0.6707
vn -0.0935 -0.0492 -0.9944
vn 0.1923 -0.0112 -0.9813
vn 0.2148 0.0117 0.9766
vn -0.0790 0.0188 0.9967
vn -0.9555 0.1472 0.2558
vn -0.6246 0.4000 -0.6708
vt 0.970709 0.540532
vt 0.983423 0.843194
vt 0.586293 0.930038
vt 0.975990 0.942776
vt 0.578030 0.677914
vt 0.989406 0.889581
vt 0.577950 0.814897
vt 0.986811 0.918696
vt 0.576993 0.742911
vt 0.925516 0.835972
vt 0.741382 0.845291
vt 0.952475 0.685750
vt 0.928148 0.892396
vt 0.738750 0.901714
vt 0.929488 0.921322
vt 0.737410 0.930640
vt 0.932282 0.979020
vt 0.734616 0.988339
vt 0.583076 0.537001
vt 0.510266 0.538109
vt 0.959887 0.845687
vt 0.957447 0.597311
vt 0.963579 0.890754
vt 0.963909 0.919695
vt 0.958010 0.962499
vt 0.578100 0.612168
vt 0.987950 0.866580
vt 0.581055 0.871586
vt 0.962242 0.866644
vt 0.926925 0.865750
vt 0.739973 0.875069
vt 0.940362 0.842479
vt 0.952475 0.645809
vt 0.702990 0.929013
vt 0.690908 0.952095
vt 0.515250 0.679024
vt 0.680087 0.928015
vt 0.516297 0.744021
vt 0.678948 0.875899
vt 0.512263 0.872697
vt 0.704656 0.875963
vt 0.703319 0.900072
vt 0.677492 0.898900
vt 0.515354 0.816007
vt 0.708888 0.971818
vt 0.515205 0.613279
vt 0.707011 0.855006
vt 0.957448 0.774189
vt 0.507036 0.931150
vt 0.683475 0.852512
vt 0.970708 0.830969
vt 0.726537 0.851798
vt 0.952475 0.725691
vt 0.734517 0.607819
vt 0.675922 0.574993
vt 0.553762 0.678808
vt 0.734139 0.544542
vt 0.549171 0.744238
vt 0.862319 0.535006
vt 0.553122 0.872985
vt 0.865283 0.605600
vt 0.805793 0.605190
vt 0.805527 0.534118
vt 0.550003 0.816295
vt 0.785124 0.852679
vt 0.778068 0.852689
vt 0.635926 0.597795
vt 0.991232 0.705129
vt 0.805945 0.692663
vt 0.976742 0.575062
vt 0.734641 0.692666
vt 0.559479 0.533436
vt 0.592264 0.692671
vt 0.533862 0.534537
vt 0.629652 0.623845
vt 0.555377 0.611606
vt 0.917146 0.608876
vt 0.649953 0.593274
vt 0.930488 0.597311
vt 0.991720 0.844254
vt 0.920424 0.543797
vt 0.558475 0.931493
vt 0.943748 0.533530
vt 0.819832 0.911918
vt 0.588434 0.643922
vt 0.925516 0.645810
vt 0.820751 0.908482
vt 0.648763 0.544536
vt 0.925516 0.685750
vt 0.786087 0.933286
vt 0.777590 0.933365
vt 0.734149 0.840789
vt 0.544119 0.745342
vt 0.734523 0.777513
vt 0.675930 0.810343
vt 0.539518 0.679913
vt 0.805539 0.851208
vt 0.543301 0.817399
vt 0.862330 0.850316
vt 0.540197 0.874089
vt 0.805799 0.780136
vt 0.865290 0.779721
vt 0.629657 0.761494
vt 0.537928 0.612709
vt 0.917152 0.776442
vt 0.976271 0.714188
vt 0.930490 0.774189
vt 0.550817 0.593157
vt 0.920435 0.841521
vt 0.943747 0.837972
vt 0.534854 0.932598
vt 0.925517 0.725691
vt 0.743650 0.912310
vt 0.742610 0.908600
vt 0.552005 0.544419
vt 0.588434 0.551667
vt 0.868258 0.645755
vt 0.991329 0.783044
vt 0.868263 0.739539
vt 0.976587 0.652963
vt 0.781695 0.917902
vt 0.781626 0.872458
vt 0.803797 0.905785
vt 0.759556 0.905851
vt 0.592264 0.869536
vt 0.598057 0.644476
vt 0.658301 0.545931
vt 0.648425 0.833226
vt 0.645945 0.597795
vt 0.643477 0.875458
vt 0.984890 0.780073
vt 0.599606 0.908732
vt 0.985351 0.835133
vt 0.658201 0.585810
vt 0.699367 0.833229
vt 0.986155 0.710034
vt 0.981830 0.579957
vt 0.643481 0.791018
vt 0.983021 0.649983
vt 0.542468 0.545816
vt 0.592269 0.796909
vt 0.598057 0.551114
vt 0.599616 0.757713
vt 0.542568 0.585694
vt 0.982627 0.705058
s 1
usemtl lambert1.001
f 28/54/1 29/55/2 30/57/3
f 31/59/4 33/62/5 34/63/6
f 33/62/5 30/57/3 34/63/6
f 55/117/7 33/62/5 32/61/8
f 36/69/9 28/54/1 33/62/5
f 37/71/10 39/75/11 28/54/1
f 32/61/8 41/81/12 40/77/13
f 40/77/13 55/117/7 32/61/8
f 57/121/14 58/122/14 59/123/15
f 28/54/1 39/75/11 29/55/2
f 45/94/16 44/92/17 46/95/18
f 48/99/19 49/101/20 50/102/21
f 49/101/20 44/92/17 45/94/16
f 49/101/20 56/119/22 50/102/21
f 36/69/23 45/94/16 37/71/24
f 37/71/24 51/103/25 38/73/26
f 53/109/27 50/102/21 52/105/28
f 56/119/22 52/105/28 50/102/21
f 57/121/14 60/124/29 58/122/14
f 45/94/16 46/95/18 51/103/25
f 11/24/30 4/8/31 2/4/32
f 13/27/33 10/23/34 14/29/35
f 10/23/34 4/8/31 11/24/30
f 14/29/35 6/13/36 15/30/37
f 6/13/36 11/24/30 7/15/38
f 7/15/38 12/25/39 8/17/40
f 1/2/41 14/29/35 9/21/42
f 16/32/43 14/29/35 15/30/37
f 5/10/44 16/32/43 15/30/37
f 11/24/30 2/4/32 12/25/39
f 17/34/45 18/35/46 19/37/47
f 20/39/48 22/42/49 23/43/50
f 22/42/49 19/37/47 23/43/50
f 21/41/51 6/14/52 22/42/49
f 6/14/52 17/34/45 22/42/49
f 7/16/53 24/45/54 17/34/45
f 21/41/51 26/50/55 25/47/56
f 27/52/57 21/41/51 25/47/56
f 5/11/44 15/31/58 27/52/57
f 17/34/45 24/45/54 18/35/46
f 4/9/59 29/56/60 2/5/60
f 3/7/61 31/60/62 34/64/63
f 3/7/61 30/58/59 4/9/59
f 8/19/64 39/76/65 38/72/64
f 13/28/66 41/82/67 31/60/62
f 9/22/68 41/83/69 1/1/69
f 16/33/70 40/79/71 9/22/68
f 5/12/72 42/86/73 16/33/70
f 2/5/60 39/76/65 12/26/74
f 19/38/75 46/96/76 44/93/75
f 23/44/77 48/100/78 20/40/78
f 23/44/77 44/93/75 47/98/79
f 8/20/80 51/104/81 24/46/82
f 25/48/83 53/110/84 52/107/85
f 20/40/78 53/111/86 26/49/86
f 27/53/87 52/107/85 54/112/88
f 27/53/87 43/89/89 5/12/89
f 18/36/76 51/104/81 46/96/76
f 61/125/90 63/130/91 64/132/90
f 65/135/92 63/130/91 62/128/93
f 66/138/94 65/135/92 62/128/93
f 67/141/95 66/138/94 62/128/93
f 42/87/96 58/122/97 35/65/97
f 43/90/98 59/123/99 42/84/99
f 43/91/100 60/124/101 57/121/101
f 54/114/102 58/122/103 60/124/103
f 35/67/104 61/126/104 42/85/105
f 55/118/106 64/133/107 63/131/106
f 42/88/108 64/134/108 40/78/108
f 55/118/109 65/136/109 36/68/109
f 56/120/110 65/137/110 66/139/111
f 54/115/112 68/144/113 67/140/112
f 56/120/114 68/145/114 52/106/115
f 35/67/116 67/142/117 62/129/117
f 31/59/4 32/61/8 33/62/5
f 33/62/5 28/54/1 30/57/3
f 55/117/7 36/69/9 33/62/5
f 36/69/9 37/71/10 28/54/1
f 37/71/10 38/73/118 39/75/11
f 32/61/8 31/59/4 41/81/12
f 48/99/19 47/97/119 49/101/20
f 49/101/20 47/97/119 44/92/17
f 49/101/20 36/69/23 56/119/22
f 36/69/23 49/101/20 45/94/16
f 37/71/24 45/94/16 51/103/25
f 53/109/27 48/99/19 50/102/21
f 13/27/33 3/6/120 10/23/34
f 10/23/34 3/6/120 4/8/31
f 14/29/35 10/23/34 6/13/36
f 6/13/36 10/23/34 11/24/30
f 7/15/38 11/24/30 12/25/39
f 1/2/41 13/27/33 14/29/35
f 16/32/43 9/21/42 14/29/35
f 20/39/48 21/41/51 22/42/49
f 22/42/49 17/34/45 19/37/47
f 21/41/51 15/31/58 6/14/52
f 6/14/52 7/16/53 17/34/45
f 7/16/53 8/18/121 24/45/54
f 21/41/51 20/39/48 26/50/55
f 27/52/57 15/31/58 21/41/51
f 4/9/59 30/58/59 29/56/60
f 3/7/61 13/28/66 31/60/62
f 3/7/61 34/64/63 30/58/59
f 8/19/64 12/26/74 39/76/65
f 13/28/66 1/3/122 41/82/67
f 9/22/68 40/79/71 41/83/69
f 16/33/70 42/86/73 40/79/71
f 5/12/72 43/89/72 42/86/73
f 2/5/60 29/56/60 39/76/65
f 19/38/75 18/36/76 46/96/76
f 23/44/77 47/98/79 48/100/78
f 23/44/77 19/38/75 44/93/75
f 8/20/80 38/74/80 51/104/81
f 25/48/83 26/51/84 53/110/84
f 20/40/78 48/100/78 53/111/86
f 27/53/87 25/48/83 52/107/85
f 27/53/87 54/112/88 43/89/89
f 18/36/76 24/46/82 51/104/81
f 61/125/90 62/128/93 63/130/91
f 67/141/95 68/143/95 66/138/94
f 42/87/96 59/123/96 58/122/97
f 43/90/98 57/121/99 59/123/99
f 43/91/100 54/113/101 60/124/101
f 54/114/102 35/66/102 58/122/103
f 35/67/104 62/129/104 61/126/104
f 55/118/106 40/80/106 64/133/107
f 42/88/108 61/127/108 64/134/108
f 55/118/109 63/131/109 65/136/109
f 56/120/110 36/70/110 65/137/110
f 54/115/112 52/108/112 68/144/113
f 56/120/114 66/139/115 68/145/114
f 35/67/116 54/116/123 67/142/117
