# Blender 3.5.1
# www.blender.org
mtllib ナイフ.mtl
o Cube
v 0.152987 1.478952 0.909775
v 0.169243 1.434867 0.909647
v 0.215604 1.476982 0.916861
v 0.117093 1.440726 0.892768
v 0.091799 1.431243 0.946418
v 0.186827 1.466113 1.005870
v 0.139855 1.426883 0.985360
v 0.125593 1.465559 0.985472
v 0.088568 1.449002 1.052880
v 0.101071 1.415096 1.052782
v 0.179409 1.463203 1.065751
v 0.040247 1.412010 1.023577
v 0.017780 1.402696 1.379168
v -0.009834 1.392791 1.283560
v 0.036017 1.409657 1.297623
v 0.015185 1.392498 1.290903
v 0.009019 1.409219 1.290950
v 0.011397 1.401132 1.106732
v -0.007486 1.393883 1.205478
v 0.123576 1.442472 1.115524
v 0.061516 1.419266 1.226538
v 0.062766 1.404672 1.112969
v 0.027413 1.393450 1.217919
v 0.052779 1.431755 1.113048
v 0.018802 1.416805 1.217986
v 0.110236 1.438502 0.787212
v 0.262559 1.494438 0.867939
v 0.174617 1.437115 0.817630
v 0.158361 1.481200 0.817758
v 0.215084 1.451971 0.840382
v 0.198827 1.496056 0.840510
v 0.088838 1.430658 0.771446
v 0.167334 1.419986 0.806590
v 0.231192 1.443430 0.842494
v 0.295764 1.506637 0.883535
v 0.205539 1.512999 0.842695
v 0.141681 1.489556 0.806791
v 0.092712 1.432141 0.752676
v 0.177025 1.423630 0.782157
v 0.240883 1.447074 0.818061
v 0.299030 1.507895 0.864697
v 0.215230 1.516644 0.818262
v 0.151371 1.493200 0.782358
v 0.201548 1.443578 0.759907
v 0.159348 1.456665 0.769266
v 0.245606 1.458360 0.784700
v 0.295264 1.506583 0.838247
v 0.226086 1.511296 0.784853
v 0.182932 1.494062 0.760054
v 0.215210 1.445425 0.737680
v 0.246508 1.458773 0.757052
v 0.196595 1.495910 0.737826
v 0.226989 1.511708 0.757205
v 0.182883 1.465379 0.756659
v 0.197886 1.470976 0.734482
v 0.247374 1.489060 0.791520
v 0.247582 1.489213 0.764988
v 0.249508 1.458309 0.655862
v 0.280805 1.471656 0.675232
v 0.230892 1.508793 0.656007
v 0.261286 1.524592 0.675385
v 0.232183 1.483859 0.652664
v 0.281879 1.502097 0.683169
v 0.290085 1.477004 0.576046
v 0.256080 1.462700 0.577938
v 0.238515 1.510331 0.578076
v 0.271669 1.526947 0.576190
v 0.239210 1.486602 0.579181
v 0.293231 1.506530 0.576494
v 0.273849 1.466626 0.458368
v 0.241241 1.452468 0.483145
v 0.220639 1.508340 0.483307
v 0.252246 1.525210 0.458537
v 0.223399 1.481209 0.489093
v 0.275552 1.500552 0.450647
v 0.231629 1.435727 0.482053
v 0.276845 1.455360 0.447693
v 0.203059 1.513204 0.482277
v 0.246889 1.536597 0.447929
v 0.206888 1.475582 0.490299
v 0.279206 1.502403 0.436988
v 0.223858 1.432894 0.470935
v 0.269074 1.452526 0.436575
v 0.239117 1.533763 0.436810
v 0.195289 1.510371 0.471158
v 0.199116 1.472748 0.479181
v 0.271434 1.499569 0.425869
v 0.250446 1.462774 0.435550
v 0.222629 1.450697 0.456689
v 0.205053 1.498361 0.456826
v 0.232017 1.512752 0.435695
v 0.207407 1.475215 0.461761
v 0.251899 1.491716 0.428964
vn 0.3183 -0.9467 0.0504
vn -0.8518 -0.3129 -0.4203
vn -0.9259 -0.3410 -0.1628
vn -0.3725 0.9264 0.0558
vn -0.3465 0.9380 -0.0052
vn 0.8590 0.3156 0.4033
vn 0.3454 -0.9384 -0.0107
vn 0.7807 0.2862 0.5555
vn 0.7877 0.2889 0.5440
vn 0.3187 -0.9477 0.0148
vn -0.8413 -0.3090 -0.4436
vn -0.3729 0.9277 0.0202
vn 0.9001 0.3311 0.2831
vn -0.4046 0.9108 0.0820
vn 0.0414 0.0124 0.9991
vn 0.2837 -0.9558 0.0766
vn -0.9340 -0.3447 0.0944
vn 0.2961 -0.9550 0.0155
vn 0.2946 -0.9552 0.0282
vn -0.8963 -0.3296 -0.2967
vn -0.9281 -0.3418 -0.1473
vn -0.3948 0.9185 0.0210
vn -0.3961 0.9176 0.0335
vn 0.7059 0.2584 0.6595
vn 0.8599 0.3159 0.4011
vn -0.1756 -0.8231 0.5401
vn 0.0808 -0.7489 0.6577
vn -0.4235 0.6187 0.6617
vn -0.6669 0.5093 0.5440
vn -0.5984 -0.2229 0.7696
vn -0.1228 -0.8920 0.4351
vn 0.1631 -0.7817 0.6019
vn -0.2226 -0.0849 0.9712
vn 0.5194 0.1891 0.8334
vn -0.3824 0.6974 0.6062
vn -0.6717 0.5965 0.4395
vn -0.9288 -0.3429 0.1404
vn 0.1508 -0.8841 -0.4424
vn 0.5723 -0.8180 -0.0571
vn 0.9318 0.3433 0.1180
vn -0.0959 0.9940 -0.0519
vn -0.4600 0.7726 -0.4377
vn -0.5788 -0.2111 -0.7877
vn -0.0530 -0.8762 -0.4791
vn 0.7756 -0.6028 -0.1871
vn 0.8869 0.3280 -0.3255
vn 0.1963 0.9586 -0.2062
vn -0.5765 0.6479 -0.4978
vn -0.1116 -0.0383 -0.9930
vn 0.7443 -0.6533 0.1385
vn 0.1074 0.9908 0.0818
vn -0.7678 0.5622 -0.3073
vn -0.6024 -0.2122 -0.7695
vn -0.8297 -0.2785 -0.4838
vn -0.1871 -0.9497 -0.2510
vn 0.8193 0.3035 -0.4864
vn 0.9198 0.3386 0.1981
vn 0.8126 -0.5660 0.1391
vn 0.1840 0.9749 0.1256
vn -0.8131 0.5603 -0.1580
vn -0.9182 -0.3034 -0.2545
vn -0.1992 -0.9679 -0.1534
vn 0.9024 0.3321 0.2745
vn 0.8338 -0.5520 -0.0085
vn 0.2037 0.9790 -0.0011
vn -0.8419 0.5383 0.0371
vn -0.9477 -0.3165 0.0403
vn -0.2350 -0.9715 0.0324
vn 0.9382 0.3457 -0.0170
vn 0.2525 -0.6895 0.6789
vn 0.9097 -0.3255 0.2579
vn -0.3363 0.6593 0.6724
vn -0.5587 -0.1723 0.8113
vn 0.9343 0.3390 0.1104
vn 0.4428 0.8415 0.3094
vn 0.8599 -0.5095 0.0328
vn 0.2696 0.9599 0.0764
vn -0.4409 0.5844 0.6812
vn -0.4288 -0.1298 0.8940
vn 0.0825 -0.7467 0.6601
vn 0.9161 0.3409 -0.2109
vn 0.3616 -0.6449 -0.6733
vn -0.2003 0.7461 -0.6350
vn -0.9196 0.3888 -0.0559
vn -0.9379 -0.3175 0.1398
vn -0.4130 -0.9072 -0.0802
vn 0.4218 0.1593 -0.8926
vn -0.5788 -0.4310 -0.6923
vn -0.3191 -0.3462 -0.8823
vn -0.4947 0.0659 -0.8665
vn -0.7293 -0.0475 -0.6826
vn -0.7404 -0.2641 -0.6181
vn -0.2870 -0.1072 -0.9519
vt 0.812270 0.169882
vt 0.811702 0.170040
vt 0.913263 0.145258
vt 0.913854 0.145189
vt 0.720523 0.176318
vt 0.721086 0.176081
vt 0.716269 0.275365
vt 0.716745 0.275124
vt 0.921238 0.300594
vt 0.920784 0.300655
vt 0.814194 0.305556
vt 0.814644 0.305400
vt 0.796993 0.434178
vt 0.796655 0.434349
vt 0.945361 0.397165
vt 0.944991 0.397205
vt 0.685567 0.428461
vt 0.685910 0.428192
vt 0.875799 0.984759
vt 0.875950 0.984860
vt 0.771173 0.857665
vt 0.771136 0.857470
vt 0.859244 0.847442
vt 0.859216 0.847326
vt 0.813804 0.852552
vt 0.813771 0.852395
vt 0.693323 0.574462
vt 0.693537 0.574200
vt 0.725606 0.737351
vt 0.725677 0.737117
vt 0.887065 0.511224
vt 0.887335 0.511133
vt 0.857006 0.722126
vt 0.857089 0.722008
vt 0.775899 0.551547
vt 0.786435 0.734550
vt 0.776133 0.551358
vt 0.786507 0.734370
vt 0.645400 0.018382
vt 0.098318 0.135023
vt 0.956882 0.038107
vt 0.957567 0.038076
vt 0.572827 0.135237
vt 0.762251 0.025419
vt 0.272171 0.073136
vt 0.762947 0.025218
vt 0.272100 0.197058
vt 0.842336 0.032812
vt 0.400171 0.073351
vt 0.843025 0.032681
vt 0.400022 0.196901
vt 0.025698 0.134993
vt 0.301238 0.964808
vt 0.228814 0.036190
vt 0.437447 0.962710
vt 0.431427 0.036311
vt 0.557006 0.964808
vt 0.675447 0.135315
vt 0.710042 0.956141
vt 0.431255 0.233963
vt 0.557012 0.964808
vt 0.228726 0.233963
vt 0.437453 0.962708
vt 0.294018 0.935608
vt 0.434576 0.920985
vt 0.553361 0.924166
vt 0.700926 0.927987
vt 0.553367 0.924165
vt 0.434582 0.920983
vt 0.461901 0.866469
vt 0.083403 0.881081
vt 0.391533 0.875649
vt 0.543835 0.870632
vt 0.176923 0.907332
vt 0.676860 0.893801
vt 0.543842 0.870631
vt 0.176923 0.907339
vt 0.461909 0.866467
vt 0.083394 0.881065
vt 0.096127 0.834064
vt 0.170100 0.855604
vt 0.096132 0.834075
vt 0.170099 0.855593
vt 0.422404 0.844114
vt 0.032518 0.867263
vt 0.045244 0.818660
vt 0.583366 0.842357
vt 0.233758 0.913154
vt 0.228471 0.865317
vt 0.130908 0.668350
vt 0.197724 0.692360
vt 0.130905 0.668349
vt 0.197723 0.692373
vt 0.075638 0.660504
vt 0.251835 0.704679
vt 0.197816 0.514384
vt 0.131592 0.520888
vt 0.131600 0.520850
vt 0.197818 0.514357
vt 0.077171 0.527495
vt 0.251866 0.512541
vt 0.166430 0.301072
vt 0.656784 0.406620
vt 0.101003 0.345668
vt 0.656363 0.656022
vt 0.100981 0.345642
vt 0.312223 0.655800
vt 0.166516 0.301149
vt 0.312299 0.406187
vt 0.044563 0.365728
vt 0.484492 0.719208
vt 0.227021 0.283934
vt 0.484125 0.342726
vt 0.593761 0.609158
vt 0.594006 0.453545
vt 0.375069 0.609548
vt 0.375276 0.452974
vt 0.484866 0.656573
vt 0.484168 0.406213
vt 0.563202 0.578386
vt 0.562984 0.484651
vt 0.406008 0.484884
vt 0.406211 0.578044
vt 0.484721 0.617693
vt 0.484136 0.445256
vt 0.523847 0.507554
vt 0.523984 0.554899
vt 0.445636 0.554725
vt 0.445431 0.507290
vt 0.484491 0.578562
vt 0.484192 0.484032
s 1
usemtl Material.001
f 2/2/1 5/7/2 4/5/3
f 1/1/4 5/8/2 8/12/5
f 2/2/1 6/10/6 7/11/7
f 1/1/4 6/9/6 3/4/8
f 8/12/5 11/15/9 6/9/6
f 7/11/7 11/16/9 10/14/10
f 8/12/5 12/18/11 9/13/12
f 7/11/7 12/17/11 5/7/2
f 15/24/13 17/26/14 13/19/15
f 16/25/16 15/23/13 13/20/15
f 13/19/15 17/26/14 14/22/17
f 16/25/16 13/20/15 14/21/17
f 22/35/18 12/17/11 10/14/10
f 23/36/19 18/27/20 22/35/18
f 23/36/19 14/21/17 19/29/21
f 12/18/11 24/37/22 9/13/12
f 18/28/20 25/38/23 24/37/22
f 14/22/17 25/38/23 19/30/21
f 20/31/24 10/14/10 11/16/9
f 21/33/25 22/35/18 20/31/24
f 15/23/13 23/36/19 21/33/25
f 9/13/12 20/32/24 11/15/9
f 24/37/22 21/34/25 20/32/24
f 25/38/23 15/24/13 21/34/25
f 4/5/3 28/44/26 2/2/1
f 2/2/1 28/44/26 30/48/27
f 30/48/27 3/3/8 2/2/1
f 3/4/8 31/50/28 1/1/4
f 1/1/4 31/50/28 29/46/29
f 29/46/29 4/6/3 1/1/4
f 26/40/30 33/54/31 28/45/26
f 28/45/26 34/56/32 30/49/27
f 27/43/33 34/56/32 35/58/34
f 27/43/33 36/60/35 31/51/28
f 29/47/29 36/60/35 37/62/36
f 26/40/30 37/62/36 32/52/37
f 32/53/37 39/65/38 33/55/31
f 33/55/31 40/66/39 34/57/32
f 34/57/32 41/67/40 35/59/34
f 36/61/35 41/67/40 42/68/41
f 37/63/36 42/68/41 43/69/42
f 32/53/37 43/69/42 38/64/43
f 40/66/39 44/70/44 46/73/45
f 40/66/39 47/75/46 41/67/40
f 42/68/41 47/75/46 48/76/47
f 42/68/41 49/78/48 43/69/42
f 38/64/43 43/69/42 45/72/49
f 38/64/43 45/72/49 39/65/38
f 43/69/42 49/78/48 45/72/49
f 39/65/38 45/72/49 44/70/44
f 44/71/44 51/81/50 46/74/45
f 49/79/48 53/83/51 52/82/52
f 45/72/49 49/78/48 54/84/53
f 44/70/44 45/72/49 54/84/53
f 49/79/48 55/86/54 54/85/53
f 44/71/44 55/86/54 50/80/55
f 46/73/45 56/87/56 47/75/46
f 47/75/46 56/87/56 48/76/47
f 46/74/45 57/89/57 56/88/56
f 48/77/47 57/89/57 53/83/51
f 50/80/55 59/91/58 51/81/50
f 52/82/52 61/93/59 60/92/60
f 52/82/52 62/94/61 55/86/54
f 50/80/55 62/94/61 58/90/62
f 51/81/50 63/95/63 57/89/57
f 53/83/51 63/95/63 61/93/59
f 58/90/62 64/96/64 59/91/58
f 60/92/60 67/99/65 66/98/66
f 62/94/61 66/98/66 68/100/67
f 62/94/61 65/97/68 58/90/62
f 59/91/58 69/101/69 63/95/63
f 61/93/59 69/101/69 67/99/65
f 64/96/64 71/104/70 70/102/71
f 67/99/65 72/106/72 66/98/66
f 66/98/66 74/110/73 68/100/67
f 65/97/68 74/110/73 71/104/70
f 69/101/69 70/102/71 75/112/74
f 69/101/69 73/108/75 67/99/65
f 71/105/70 77/115/76 70/103/71
f 72/107/72 79/117/77 78/116/78
f 72/107/72 80/118/79 74/111/73
f 71/105/70 80/118/79 76/114/80
f 70/103/71 81/119/81 75/113/74
f 73/109/75 81/119/81 79/117/77
f 76/114/80 83/121/82 77/115/76
f 78/116/78 84/122/83 85/123/84
f 78/116/78 86/124/85 80/118/79
f 76/114/80 86/124/85 82/120/86
f 77/115/76 87/125/87 81/119/81
f 79/117/77 87/125/87 84/122/83
f 83/121/82 89/127/88 88/126/89
f 85/123/84 91/129/90 90/128/91
f 86/124/85 90/128/91 92/130/92
f 86/124/85 89/127/88 82/120/86
f 87/125/87 88/126/89 93/131/93
f 87/125/87 91/129/90 84/122/83
f 91/129/90 92/130/92 90/128/91
f 88/126/89 92/130/92 93/131/93
f 2/2/1 7/11/7 5/7/2
f 1/1/4 4/6/3 5/8/2
f 2/2/1 3/3/8 6/10/6
f 1/1/4 8/12/5 6/9/6
f 8/12/5 9/13/12 11/15/9
f 7/11/7 6/10/6 11/16/9
f 8/12/5 5/8/2 12/18/11
f 7/11/7 10/14/10 12/17/11
f 22/35/18 18/27/20 12/17/11
f 23/36/19 19/29/21 18/27/20
f 23/36/19 16/25/16 14/21/17
f 12/18/11 18/28/20 24/37/22
f 18/28/20 19/30/21 25/38/23
f 14/22/17 17/26/14 25/38/23
f 20/31/24 22/35/18 10/14/10
f 21/33/25 23/36/19 22/35/18
f 15/23/13 16/25/16 23/36/19
f 9/13/12 24/37/22 20/32/24
f 24/37/22 25/38/23 21/34/25
f 25/38/23 17/26/14 15/24/13
f 4/5/3 26/39/30 28/44/26
f 30/48/27 27/41/33 3/3/8
f 3/4/8 27/42/33 31/50/28
f 29/46/29 26/39/30 4/6/3
f 26/40/30 32/52/37 33/54/31
f 28/45/26 33/54/31 34/56/32
f 27/43/33 30/49/27 34/56/32
f 27/43/33 35/58/34 36/60/35
f 29/47/29 31/51/28 36/60/35
f 26/40/30 29/47/29 37/62/36
f 32/53/37 38/64/43 39/65/38
f 33/55/31 39/65/38 40/66/39
f 34/57/32 40/66/39 41/67/40
f 36/61/35 35/59/34 41/67/40
f 37/63/36 36/61/35 42/68/41
f 32/53/37 37/63/36 43/69/42
f 40/66/39 39/65/38 44/70/44
f 40/66/39 46/73/45 47/75/46
f 42/68/41 41/67/40 47/75/46
f 42/68/41 48/76/47 49/78/48
f 44/71/44 50/80/55 51/81/50
f 49/79/48 48/77/47 53/83/51
f 49/79/48 52/82/52 55/86/54
f 44/71/44 54/85/53 55/86/54
f 46/74/45 51/81/50 57/89/57
f 48/77/47 56/88/56 57/89/57
f 50/80/55 58/90/62 59/91/58
f 52/82/52 53/83/51 61/93/59
f 52/82/52 60/92/60 62/94/61
f 50/80/55 55/86/54 62/94/61
f 51/81/50 59/91/58 63/95/63
f 53/83/51 57/89/57 63/95/63
f 58/90/62 65/97/68 64/96/64
f 60/92/60 61/93/59 67/99/65
f 62/94/61 60/92/60 66/98/66
f 62/94/61 68/100/67 65/97/68
f 59/91/58 64/96/64 69/101/69
f 61/93/59 63/95/63 69/101/69
f 64/96/64 65/97/68 71/104/70
f 67/99/65 73/108/75 72/106/72
f 66/98/66 72/106/72 74/110/73
f 65/97/68 68/100/67 74/110/73
f 69/101/69 64/96/64 70/102/71
f 69/101/69 75/112/74 73/108/75
f 71/105/70 76/114/80 77/115/76
f 72/107/72 73/109/75 79/117/77
f 72/107/72 78/116/78 80/118/79
f 71/105/70 74/111/73 80/118/79
f 70/103/71 77/115/76 81/119/81
f 73/109/75 75/113/74 81/119/81
f 76/114/80 82/120/86 83/121/82
f 78/116/78 79/117/77 84/122/83
f 78/116/78 85/123/84 86/124/85
f 76/114/80 80/118/79 86/124/85
f 77/115/76 83/121/82 87/125/87
f 79/117/77 81/119/81 87/125/87
f 83/121/82 82/120/86 89/127/88
f 85/123/84 84/122/83 91/129/90
f 86/124/85 85/123/84 90/128/91
f 86/124/85 92/130/92 89/127/88
f 87/125/87 83/121/82 88/126/89
f 87/125/87 93/131/93 91/129/90
f 91/129/90 93/131/93 92/130/92
f 88/126/89 89/127/88 92/130/92
