# Blender 3.5.1
# www.blender.org
mtllib PortionGreen.mtl
o default
v -0.020924 -0.023063 0.000000
v 0.003490 -0.032871 0.000000
v -0.029009 -0.004302 -0.000000
v 0.006539 0.034126 -0.000000
v 0.019527 0.060459 -0.000000
v 0.025880 0.057541 -0.007447
v 0.021675 0.047124 -0.009961
v 0.014317 0.028958 -0.009903
v -0.009188 0.013567 -0.017836
v 0.020348 0.001518 -0.017836
v 0.022743 -0.024857 -0.029199
v -0.029200 -0.003641 -0.029199
v 0.005310 -0.033037 -0.013060
v -0.022264 -0.021844 -0.013060
v 0.012435 0.051275 -0.000000
v 0.021675 0.047124 0.009961
v 0.014317 0.028958 0.009903
v 0.031195 0.043666 -0.000000
v 0.023494 0.027252 -0.000000
v -0.009188 0.013567 0.017836
v -0.009002 0.013670 -0.000000
v 0.020348 0.001518 0.017836
v 0.020287 0.001767 0.000000
v 0.022286 -0.025182 0.000000
v 0.022743 -0.024857 0.029199
v -0.029200 -0.003641 0.029199
v 0.005310 -0.033037 0.013060
v -0.022264 -0.021844 0.013060
v 0.025880 0.057541 0.007447
v 0.032689 0.054689 -0.000000
vn 0.0354 0.0822 -0.9960
vn 0.1510 0.3696 -0.9168
vn -0.7620 0.6475 -0.0000
vn -0.8877 0.4603 -0.0000
vn 0.9977 -0.0684 -0.0000
vn 0.9581 -0.2865 -0.0000
vn -0.3564 0.7112 -0.6059
vn -0.7360 0.6770 -0.0000
vn 0.9997 -0.0264 -0.0000
vn 0.7505 0.2621 -0.6067
vn 0.8483 -0.5294 -0.0000
vn 0.5966 -0.3945 -0.6989
vn -0.7032 0.1352 -0.6980
vn -0.9776 0.2106 -0.0000
vn -0.0115 -0.9999 -0.0000
vn 0.0027 -0.9679 -0.2513
vn -0.6718 -0.6946 -0.2573
vn -0.6868 -0.7268 -0.0000
vn -0.4068 0.9135 -0.0000
vn 0.2507 0.6044 -0.7562
vn 0.9450 0.3271 -0.0000
vn 0.0354 0.0822 0.9960
vn 0.1510 0.3696 0.9168
vn -0.3564 0.7112 0.6059
vn 0.7505 0.2621 0.6067
vn 0.5966 -0.3945 0.6989
vn -0.7032 0.1352 0.6980
vn 0.0027 -0.9679 0.2513
vn -0.6718 -0.6946 0.2573
vn 0.2507 0.6044 0.7562
vt 0.834620 0.007046
vt 0.179691 0.007046
vt 0.986797 0.224820
vt 0.684462 0.699553
vt 0.630594 0.995509
vt 0.505015 0.932841
vt 0.504414 0.819493
vt 0.504414 0.665895
vt 0.858675 0.511390
vt 0.207765 0.519620
vt 0.074070 0.270578
vt 0.942988 0.184159
vt 0.325921 0.099880
vt 0.682906 0.099880
vt 0.692466 0.851377
vt 0.504414 0.819493
vt 0.504414 0.665895
vt 0.316362 0.851377
vt 0.324365 0.699553
vt 0.858675 0.511390
vt 0.995824 0.536577
vt 0.207765 0.519620
vt 0.013003 0.536577
vt 0.005571 0.181610
vt 0.074070 0.270578
vt 0.942988 0.184159
vt 0.325921 0.099880
vt 0.682906 0.099880
vt 0.505015 0.932841
vt 0.359247 0.995530
s 1
usemtl default
f 7/7/1 8/8/2 4/4/3
f 4/4/3 15/15/4 7/7/1
f 19/19/5 8/8/2 7/7/1
f 7/7/1 18/18/6 19/19/5
f 9/9/7 21/21/8 4/4/3
f 4/4/3 8/8/2 9/9/7
f 19/19/5 23/23/9 10/10/10
f 10/10/10 8/8/2 19/19/5
f 10/10/10 9/9/7 8/8/2
f 24/24/11 11/11/12 10/10/10
f 10/10/10 23/23/9 24/24/11
f 9/9/7 12/12/13 3/3/14
f 3/3/14 21/21/8 9/9/7
f 10/10/10 11/11/12 12/12/13
f 12/12/13 9/9/7 10/10/10
f 2/2/15 13/13/16 11/11/12
f 11/11/12 24/24/11 2/2/15
f 12/12/13 14/14/17 1/1/18
f 1/1/18 3/3/14 12/12/13
f 14/14/17 12/12/13 11/11/12
f 14/14/17 11/11/12 13/13/16
f 13/13/16 2/2/15 1/1/18
f 14/14/17 13/13/16 1/1/18
f 15/15/4 5/5/19 6/6/20
f 6/6/20 7/7/1 15/15/4
f 7/7/1 6/6/20 30/30/21
f 30/30/21 18/18/6 7/7/1
f 6/6/20 5/5/19 30/30/21
f 16/16/22 15/15/4 4/4/3
f 4/4/3 17/17/23 16/16/22
f 19/19/5 18/18/6 16/16/22
f 16/16/22 17/17/23 19/19/5
f 20/20/24 17/17/23 4/4/3
f 4/4/3 21/21/8 20/20/24
f 19/19/5 17/17/23 22/22/25
f 22/22/25 23/23/9 19/19/5
f 22/22/25 17/17/23 20/20/24
f 24/24/11 23/23/9 22/22/25
f 22/22/25 25/25/26 24/24/11
f 20/20/24 21/21/8 3/3/14
f 3/3/14 26/26/27 20/20/24
f 22/22/25 20/20/24 26/26/27
f 26/26/27 25/25/26 22/22/25
f 2/2/15 24/24/11 25/25/26
f 25/25/26 27/27/28 2/2/15
f 26/26/27 3/3/14 1/1/18
f 1/1/18 28/28/29 26/26/27
f 28/28/29 25/25/26 26/26/27
f 28/28/29 27/27/28 25/25/26
f 27/27/28 1/1/18 2/2/15
f 28/28/29 1/1/18 27/27/28
f 15/15/4 16/16/22 29/29/30
f 29/29/30 5/5/19 15/15/4
f 16/16/22 18/18/6 30/30/21
f 30/30/21 29/29/30 16/16/22
f 29/29/30 30/30/21 5/5/19
